<mxfile host="app.diagrams.net" modified="2021-09-29T14:39:31.034Z" agent="5.0 (Windows NT 10.0; Win64; x64) AppleWebKit/537.36 (KHTML, like Gecko) Chrome/94.0.4606.61 Safari/537.36" etag="Df8Sbx6JObe3zNIW9MeD" version="15.3.8" type="github">
  <diagram id="jbCd7I1t5c2xIs4rV2c9" name="Page-1">
    <mxGraphModel dx="1038" dy="521" grid="1" gridSize="10" guides="1" tooltips="1" connect="1" arrows="1" fold="1" page="1" pageScale="1" pageWidth="827" pageHeight="1169" math="0" shadow="0">
      <root>
        <mxCell id="0" />
        <mxCell id="1" parent="0" />
        <mxCell id="986Uw8pwmW8TnSi5Kcz3-1" value="START" style="rounded=1;whiteSpace=wrap;html=1;fontSize=25;fontStyle=1" vertex="1" parent="1">
          <mxGeometry x="412" y="40" width="146" height="80" as="geometry" />
        </mxCell>
        <mxCell id="986Uw8pwmW8TnSi5Kcz3-2" value="" style="endArrow=classic;html=1;fontSize=25;exitX=0;exitY=0.5;exitDx=0;exitDy=0;" edge="1" parent="1" source="986Uw8pwmW8TnSi5Kcz3-1">
          <mxGeometry width="50" height="50" relative="1" as="geometry">
            <mxPoint x="344" y="80" as="sourcePoint" />
            <mxPoint x="120" y="200" as="targetPoint" />
            <Array as="points">
              <mxPoint x="120" y="80" />
            </Array>
          </mxGeometry>
        </mxCell>
        <mxCell id="986Uw8pwmW8TnSi5Kcz3-3" value="&lt;font style=&quot;font-size: 18px&quot;&gt;Lancement du compte à rebours&lt;/font&gt;" style="rounded=0;whiteSpace=wrap;html=1;fontSize=25;" vertex="1" parent="1">
          <mxGeometry x="40" y="200" width="160" height="60" as="geometry" />
        </mxCell>
        <mxCell id="986Uw8pwmW8TnSi5Kcz3-4" value="" style="endArrow=classic;html=1;fontSize=25;exitX=0.5;exitY=1;exitDx=0;exitDy=0;" edge="1" parent="1" source="986Uw8pwmW8TnSi5Kcz3-3">
          <mxGeometry width="50" height="50" relative="1" as="geometry">
            <mxPoint x="120" y="320" as="sourcePoint" />
            <mxPoint x="120" y="320" as="targetPoint" />
          </mxGeometry>
        </mxCell>
        <mxCell id="986Uw8pwmW8TnSi5Kcz3-5" value="&lt;font style=&quot;font-size: 18px&quot;&gt;Fin du compte à rebours&lt;/font&gt;" style="rounded=0;whiteSpace=wrap;html=1;fontSize=25;" vertex="1" parent="1">
          <mxGeometry x="50" y="320" width="140" height="60" as="geometry" />
        </mxCell>
        <mxCell id="986Uw8pwmW8TnSi5Kcz3-6" value="&lt;i&gt;&lt;font style=&quot;font-size: 20px&quot;&gt;Fin de partie (défaite)&lt;/font&gt;&lt;/i&gt;" style="rounded=0;whiteSpace=wrap;html=1;fontSize=25;fillColor=#f8cecc;strokeColor=#b85450;" vertex="1" parent="1">
          <mxGeometry x="60" y="440" width="120" height="60" as="geometry" />
        </mxCell>
        <mxCell id="986Uw8pwmW8TnSi5Kcz3-7" value="" style="endArrow=classic;html=1;fontSize=25;entryX=0.5;entryY=0;entryDx=0;entryDy=0;" edge="1" parent="1" target="986Uw8pwmW8TnSi5Kcz3-6">
          <mxGeometry width="50" height="50" relative="1" as="geometry">
            <mxPoint x="120" y="380" as="sourcePoint" />
            <mxPoint x="170" y="330" as="targetPoint" />
          </mxGeometry>
        </mxCell>
        <mxCell id="986Uw8pwmW8TnSi5Kcz3-8" value="&lt;font style=&quot;font-size: 20px&quot;&gt;Choix aléatoire d&#39;une procédure prédéfinie (sauf celles déjà jouées)&lt;/font&gt;" style="rounded=0;whiteSpace=wrap;html=1;fontSize=25;" vertex="1" parent="1">
          <mxGeometry x="390" y="190" width="186" height="120" as="geometry" />
        </mxCell>
        <mxCell id="986Uw8pwmW8TnSi5Kcz3-9" value="" style="endArrow=classic;html=1;fontSize=25;entryX=0.5;entryY=0;entryDx=0;entryDy=0;" edge="1" parent="1" target="986Uw8pwmW8TnSi5Kcz3-8">
          <mxGeometry width="50" height="50" relative="1" as="geometry">
            <mxPoint x="483" y="120" as="sourcePoint" />
            <mxPoint x="530" y="70" as="targetPoint" />
            <Array as="points">
              <mxPoint x="483" y="150" />
            </Array>
          </mxGeometry>
        </mxCell>
        <mxCell id="986Uw8pwmW8TnSi5Kcz3-42" style="edgeStyle=orthogonalEdgeStyle;rounded=1;orthogonalLoop=1;jettySize=auto;html=1;entryX=0.5;entryY=0;entryDx=0;entryDy=0;fontSize=25;" edge="1" parent="1" source="986Uw8pwmW8TnSi5Kcz3-10" target="986Uw8pwmW8TnSi5Kcz3-40">
          <mxGeometry relative="1" as="geometry" />
        </mxCell>
        <mxCell id="986Uw8pwmW8TnSi5Kcz3-45" value="" style="edgeStyle=orthogonalEdgeStyle;curved=1;orthogonalLoop=1;jettySize=auto;html=1;fontSize=25;endArrow=none;endFill=0;" edge="1" parent="1" source="986Uw8pwmW8TnSi5Kcz3-10" target="986Uw8pwmW8TnSi5Kcz3-40">
          <mxGeometry relative="1" as="geometry" />
        </mxCell>
        <mxCell id="986Uw8pwmW8TnSi5Kcz3-10" value="&lt;font style=&quot;font-size: 20px&quot;&gt;Procédure à réaliser&lt;/font&gt;" style="ellipse;whiteSpace=wrap;html=1;fontSize=25;" vertex="1" parent="1">
          <mxGeometry x="408" y="360" width="150" height="80" as="geometry" />
        </mxCell>
        <mxCell id="986Uw8pwmW8TnSi5Kcz3-11" value="" style="endArrow=classic;html=1;fontSize=25;entryX=0.5;entryY=0;entryDx=0;entryDy=0;exitX=0.5;exitY=1;exitDx=0;exitDy=0;" edge="1" parent="1" source="986Uw8pwmW8TnSi5Kcz3-8" target="986Uw8pwmW8TnSi5Kcz3-10">
          <mxGeometry width="50" height="50" relative="1" as="geometry">
            <mxPoint x="490" y="310" as="sourcePoint" />
            <mxPoint x="540" y="260" as="targetPoint" />
          </mxGeometry>
        </mxCell>
        <mxCell id="986Uw8pwmW8TnSi5Kcz3-50" style="edgeStyle=orthogonalEdgeStyle;orthogonalLoop=1;jettySize=auto;html=1;exitX=0;exitY=0.5;exitDx=0;exitDy=0;dashed=1;fontSize=25;endArrow=none;endFill=0;curved=1;" edge="1" parent="1" source="986Uw8pwmW8TnSi5Kcz3-12">
          <mxGeometry relative="1" as="geometry">
            <mxPoint x="480" y="330" as="targetPoint" />
            <Array as="points">
              <mxPoint x="250" y="630" />
              <mxPoint x="250" y="330" />
            </Array>
          </mxGeometry>
        </mxCell>
        <mxCell id="986Uw8pwmW8TnSi5Kcz3-12" value="&lt;font style=&quot;font-size: 20px&quot;&gt;Ajout d&#39;une erreur&lt;/font&gt;" style="rounded=0;whiteSpace=wrap;html=1;fontSize=25;" vertex="1" parent="1">
          <mxGeometry x="270" y="600" width="120" height="60" as="geometry" />
        </mxCell>
        <mxCell id="986Uw8pwmW8TnSi5Kcz3-13" value="&lt;font style=&quot;font-size: 21px&quot;&gt;Un nouveau point&lt;/font&gt;" style="rounded=0;whiteSpace=wrap;html=1;fontSize=25;" vertex="1" parent="1">
          <mxGeometry x="576" y="600" width="120" height="60" as="geometry" />
        </mxCell>
        <mxCell id="986Uw8pwmW8TnSi5Kcz3-25" value="" style="endArrow=classic;html=1;fontSize=25;entryX=0.5;entryY=0;entryDx=0;entryDy=0;exitX=0;exitY=0.5;exitDx=0;exitDy=0;" edge="1" parent="1" source="986Uw8pwmW8TnSi5Kcz3-40" target="986Uw8pwmW8TnSi5Kcz3-12">
          <mxGeometry relative="1" as="geometry">
            <mxPoint x="420" y="450" as="sourcePoint" />
            <mxPoint x="340" y="525" as="targetPoint" />
            <Array as="points">
              <mxPoint x="390" y="535" />
              <mxPoint x="360" y="535" />
              <mxPoint x="330" y="535" />
            </Array>
          </mxGeometry>
        </mxCell>
        <mxCell id="986Uw8pwmW8TnSi5Kcz3-26" value="Mauvaise&lt;br&gt;Manipulation" style="edgeLabel;resizable=0;html=1;align=center;verticalAlign=middle;" connectable="0" vertex="1" parent="986Uw8pwmW8TnSi5Kcz3-25">
          <mxGeometry relative="1" as="geometry" />
        </mxCell>
        <mxCell id="986Uw8pwmW8TnSi5Kcz3-29" value="" style="endArrow=classic;html=1;fontSize=25;exitX=0.5;exitY=1;exitDx=0;exitDy=0;entryX=0.5;entryY=0;entryDx=0;entryDy=0;" edge="1" parent="1" target="986Uw8pwmW8TnSi5Kcz3-31">
          <mxGeometry relative="1" as="geometry">
            <mxPoint x="330" y="660" as="sourcePoint" />
            <mxPoint x="330" y="715" as="targetPoint" />
          </mxGeometry>
        </mxCell>
        <mxCell id="986Uw8pwmW8TnSi5Kcz3-30" value="&lt;i&gt;x &lt;/i&gt;erreurs" style="edgeLabel;resizable=0;html=1;align=center;verticalAlign=middle;" connectable="0" vertex="1" parent="986Uw8pwmW8TnSi5Kcz3-29">
          <mxGeometry relative="1" as="geometry" />
        </mxCell>
        <mxCell id="986Uw8pwmW8TnSi5Kcz3-31" value="&lt;i style=&quot;font-size: 18px&quot;&gt;Fin de partie&lt;br&gt;&lt;/i&gt;&lt;i&gt;&lt;font style=&quot;font-size: 18px&quot;&gt;(défaite)&lt;/font&gt;&lt;/i&gt;" style="rounded=0;whiteSpace=wrap;html=1;fontSize=25;fillColor=#f8cecc;strokeColor=#b85450;" vertex="1" parent="1">
          <mxGeometry x="270" y="740" width="120" height="60" as="geometry" />
        </mxCell>
        <mxCell id="986Uw8pwmW8TnSi5Kcz3-32" value="" style="endArrow=classic;html=1;fontSize=25;entryX=0.5;entryY=0;entryDx=0;entryDy=0;exitX=1;exitY=0.5;exitDx=0;exitDy=0;" edge="1" parent="1" source="986Uw8pwmW8TnSi5Kcz3-40" target="986Uw8pwmW8TnSi5Kcz3-13">
          <mxGeometry relative="1" as="geometry">
            <mxPoint x="558" y="399.5" as="sourcePoint" />
            <mxPoint x="658" y="399.5" as="targetPoint" />
            <Array as="points">
              <mxPoint x="636" y="535" />
            </Array>
          </mxGeometry>
        </mxCell>
        <mxCell id="986Uw8pwmW8TnSi5Kcz3-33" value="Bonne&lt;br&gt;Manipulation" style="edgeLabel;resizable=0;html=1;align=center;verticalAlign=middle;" connectable="0" vertex="1" parent="986Uw8pwmW8TnSi5Kcz3-32">
          <mxGeometry relative="1" as="geometry">
            <mxPoint x="-1" y="5" as="offset" />
          </mxGeometry>
        </mxCell>
        <mxCell id="986Uw8pwmW8TnSi5Kcz3-34" value="&lt;font style=&quot;font-size: 18px&quot;&gt;&lt;i&gt;&lt;span&gt;Fin de partie&amp;nbsp;&lt;/span&gt;&lt;br&gt;&lt;/i&gt;&lt;i&gt;&lt;font style=&quot;font-size: 17px&quot;&gt;(victoire)&lt;/font&gt;&lt;/i&gt;&lt;br&gt;&lt;/font&gt;" style="rounded=0;whiteSpace=wrap;html=1;fontSize=25;fillColor=#d5e8d4;strokeColor=#82b366;" vertex="1" parent="1">
          <mxGeometry x="576" y="740" width="120" height="60" as="geometry" />
        </mxCell>
        <mxCell id="986Uw8pwmW8TnSi5Kcz3-35" value="" style="endArrow=classic;html=1;fontSize=25;exitX=0.5;exitY=1;exitDx=0;exitDy=0;entryX=0.5;entryY=0;entryDx=0;entryDy=0;" edge="1" parent="1" source="986Uw8pwmW8TnSi5Kcz3-13" target="986Uw8pwmW8TnSi5Kcz3-34">
          <mxGeometry relative="1" as="geometry">
            <mxPoint x="630" y="610" as="sourcePoint" />
            <mxPoint x="730" y="610" as="targetPoint" />
          </mxGeometry>
        </mxCell>
        <mxCell id="986Uw8pwmW8TnSi5Kcz3-36" value="&lt;i&gt;n&amp;nbsp;&lt;/i&gt;points" style="edgeLabel;resizable=0;html=1;align=center;verticalAlign=middle;" connectable="0" vertex="1" parent="986Uw8pwmW8TnSi5Kcz3-35">
          <mxGeometry relative="1" as="geometry" />
        </mxCell>
        <mxCell id="986Uw8pwmW8TnSi5Kcz3-40" value="&lt;span style=&quot;font-size: 18px&quot;&gt;&lt;b&gt;Validation procédure&lt;/b&gt;&lt;/span&gt;" style="rhombus;whiteSpace=wrap;html=1;fontSize=25;align=center;" vertex="1" parent="1">
          <mxGeometry x="408" y="480" width="150" height="110" as="geometry" />
        </mxCell>
        <mxCell id="986Uw8pwmW8TnSi5Kcz3-46" value="" style="endArrow=none;html=1;fontSize=25;exitX=1;exitY=0.5;exitDx=0;exitDy=0;curved=1;dashed=1;" edge="1" parent="1" source="986Uw8pwmW8TnSi5Kcz3-13">
          <mxGeometry width="50" height="50" relative="1" as="geometry">
            <mxPoint x="696" y="640" as="sourcePoint" />
            <mxPoint x="490" y="150" as="targetPoint" />
            <Array as="points">
              <mxPoint x="770" y="630" />
              <mxPoint x="770" y="150" />
            </Array>
          </mxGeometry>
        </mxCell>
      </root>
    </mxGraphModel>
  </diagram>
</mxfile>
